0
SECTION
2
HEADER
9
$ACADVER
1
AC1009
9
$INSUNITS
70
4
9
$MEASUREMENT
70
1
0
ENDSEC
0
SECTION
2
TABLES
0
TABLE
2
LAYER
70
3
0
LAYER
2
0
70
0
62
7
6
CONTINUOUS
0
LAYER
2
CUT
70
0
62
1
6
CONTINUOUS
0
LAYER
2
ENGRAVE
70
0
62
3
6
CONTINUOUS
0
ENDTAB
0
ENDSEC
0
SECTION
2
ENTITIES
0
CIRCLE
8
CUT
10
0
20
0
30
0
40
150
0
CIRCLE
8
CUT
10
125
20
0
30
0
40
1.7
0
CIRCLE
8
CUT
10
62.5
20
108.253
30
0
40
1.7
0
CIRCLE
8
CUT
10
-62.5
20
108.253
30
0
40
1.7
0
CIRCLE
8
CUT
10
-125
20
0
30
0
40
1.7
0
CIRCLE
8
CUT
10
-62.5
20
-108.253
30
0
40
1.7
0
CIRCLE
8
CUT
10
62.5
20
-108.253
30
0
40
1.7
0
POLYLINE
8
CUT
66
1
70
1
0
VERTEX
8
CUT
10
-57
20
8
30
0
0
VERTEX
8
CUT
10
-57.536
20
10
30
0
0
VERTEX
8
CUT
10
-59
20
11.464
30
0
0
VERTEX
8
CUT
10
-61
20
12
30
0
0
VERTEX
8
CUT
10
-123
20
12
30
0
0
VERTEX
8
CUT
10
-125
20
11.464
30
0
0
VERTEX
8
CUT
10
-126.464
20
10
30
0
0
VERTEX
8
CUT
10
-127
20
8
30
0
0
VERTEX
8
CUT
10
-127
20
-8
30
0
0
VERTEX
8
CUT
10
-126.464
20
-10
30
0
0
VERTEX
8
CUT
10
-125
20
-11.464
30
0
0
VERTEX
8
CUT
10
-123
20
-12
30
0
0
VERTEX
8
CUT
10
-61
20
-12
30
0
0
VERTEX
8
CUT
10
-59
20
-11.464
30
0
0
VERTEX
8
CUT
10
-57.536
20
-10
30
0
0
VERTEX
8
CUT
10
-57
20
-8
30
0
0
SEQEND
0
POLYLINE
8
CUT
66
1
70
1
0
VERTEX
8
CUT
10
127
20
8
30
0
0
VERTEX
8
CUT
10
126.464
20
10
30
0
0
VERTEX
8
CUT
10
125
20
11.464
30
0
0
VERTEX
8
CUT
10
123
20
12
30
0
0
VERTEX
8
CUT
10
61
20
12
30
0
0
VERTEX
8
CUT
10
59
20
11.464
30
0
0
VERTEX
8
CUT
10
57.536
20
10
30
0
0
VERTEX
8
CUT
10
57
20
8
30
0
0
VERTEX
8
CUT
10
57
20
-8
30
0
0
VERTEX
8
CUT
10
57.536
20
-10
30
0
0
VERTEX
8
CUT
10
59
20
-11.464
30
0
0
VERTEX
8
CUT
10
61
20
-12
30
0
0
VERTEX
8
CUT
10
123
20
-12
30
0
0
VERTEX
8
CUT
10
125
20
-11.464
30
0
0
VERTEX
8
CUT
10
126.464
20
-10
30
0
0
VERTEX
8
CUT
10
127
20
-8
30
0
0
SEQEND
0
POLYLINE
8
CUT
66
1
70
1
0
VERTEX
8
CUT
10
9
20
139
30
0
0
VERTEX
8
CUT
10
8.732
20
140
30
0
0
VERTEX
8
CUT
10
8
20
140.732
30
0
0
VERTEX
8
CUT
10
7
20
141
30
0
0
VERTEX
8
CUT
10
-7
20
141
30
0
0
VERTEX
8
CUT
10
-8
20
140.732
30
0
0
VERTEX
8
CUT
10
-8.732
20
140
30
0
0
VERTEX
8
CUT
10
-9
20
139
30
0
0
VERTEX
8
CUT
10
-9
20
131
30
0
0
VERTEX
8
CUT
10
-8.732
20
130
30
0
0
VERTEX
8
CUT
10
-8
20
129.268
30
0
0
VERTEX
8
CUT
10
-7
20
129
30
0
0
VERTEX
8
CUT
10
7
20
129
30
0
0
VERTEX
8
CUT
10
8
20
129.268
30
0
0
VERTEX
8
CUT
10
8.732
20
130
30
0
0
VERTEX
8
CUT
10
9
20
131
30
0
0
SEQEND
0
POLYLINE
8
CUT
66
1
70
1
0
VERTEX
8
CUT
10
144
20
4
30
0
0
VERTEX
8
CUT
10
143.732
20
5
30
0
0
VERTEX
8
CUT
10
143
20
5.732
30
0
0
VERTEX
8
CUT
10
142
20
6
30
0
0
VERTEX
8
CUT
10
128
20
6
30
0
0
VERTEX
8
CUT
10
127
20
5.732
30
0
0
VERTEX
8
CUT
10
126.268
20
5
30
0
0
VERTEX
8
CUT
10
126
20
4
30
0
0
VERTEX
8
CUT
10
126
20
-4
30
0
0
VERTEX
8
CUT
10
126.268
20
-5
30
0
0
VERTEX
8
CUT
10
127
20
-5.732
30
0
0
VERTEX
8
CUT
10
128
20
-6
30
0
0
VERTEX
8
CUT
10
142
20
-6
30
0
0
VERTEX
8
CUT
10
143
20
-5.732
30
0
0
VERTEX
8
CUT
10
143.732
20
-5
30
0
0
VERTEX
8
CUT
10
144
20
-4
30
0
0
SEQEND
0
POLYLINE
8
CUT
66
1
70
1
0
VERTEX
8
CUT
10
9
20
-131
30
0
0
VERTEX
8
CUT
10
8.732
20
-130
30
0
0
VERTEX
8
CUT
10
8
20
-129.268
30
0
0
VERTEX
8
CUT
10
7
20
-129
30
0
0
VERTEX
8
CUT
10
-7
20
-129
30
0
0
VERTEX
8
CUT
10
-8
20
-129.268
30
0
0
VERTEX
8
CUT
10
-8.732
20
-130
30
0
0
VERTEX
8
CUT
10
-9
20
-131
30
0
0
VERTEX
8
CUT
10
-9
20
-139
30
0
0
VERTEX
8
CUT
10
-8.732
20
-140
30
0
0
VERTEX
8
CUT
10
-8
20
-140.732
30
0
0
VERTEX
8
CUT
10
-7
20
-141
30
0
0
VERTEX
8
CUT
10
7
20
-141
30
0
0
VERTEX
8
CUT
10
8
20
-140.732
30
0
0
VERTEX
8
CUT
10
8.732
20
-140
30
0
0
VERTEX
8
CUT
10
9
20
-139
30
0
0
SEQEND
0
POLYLINE
8
CUT
66
1
70
1
0
VERTEX
8
CUT
10
-126
20
4
30
0
0
VERTEX
8
CUT
10
-126.268
20
5
30
0
0
VERTEX
8
CUT
10
-127
20
5.732
30
0
0
VERTEX
8
CUT
10
-128
20
6
30
0
0
VERTEX
8
CUT
10
-142
20
6
30
0
0
VERTEX
8
CUT
10
-143
20
5.732
30
0
0
VERTEX
8
CUT
10
-143.732
20
5
30
0
0
VERTEX
8
CUT
10
-144
20
4
30
0
0
VERTEX
8
CUT
10
-144
20
-4
30
0
0
VERTEX
8
CUT
10
-143.732
20
-5
30
0
0
VERTEX
8
CUT
10
-143
20
-5.732
30
0
0
VERTEX
8
CUT
10
-142
20
-6
30
0
0
VERTEX
8
CUT
10
-128
20
-6
30
0
0
VERTEX
8
CUT
10
-127
20
-5.732
30
0
0
VERTEX
8
CUT
10
-126.268
20
-5
30
0
0
VERTEX
8
CUT
10
-126
20
-4
30
0
0
SEQEND
0
CIRCLE
8
CUT
10
94.752
20
87.681
30
0
40
1.6
0
CIRCLE
8
CUT
10
87.681
20
94.752
30
0
40
1.6
0
CIRCLE
8
CUT
10
-87.681
20
94.752
30
0
40
1.6
0
CIRCLE
8
CUT
10
-94.752
20
87.681
30
0
40
1.6
0
CIRCLE
8
CUT
10
-94.752
20
-87.681
30
0
40
1.6
0
CIRCLE
8
CUT
10
-87.681
20
-94.752
30
0
40
1.6
0
CIRCLE
8
CUT
10
87.681
20
-94.752
30
0
40
1.6
0
CIRCLE
8
CUT
10
94.752
20
-87.681
30
0
40
1.6
0
CIRCLE
8
CUT
10
-10.15
20
-110
30
0
40
1.4
0
CIRCLE
8
CUT
10
10.15
20
-110
30
0
40
1.4
0
ENDSEC
0
EOF
