0
SECTION
2
HEADER
9
$ACADVER
1
AC1009
9
$INSUNITS
70
4
9
$MEASUREMENT
70
1
0
ENDSEC
0
SECTION
2
TABLES
0
TABLE
2
LAYER
70
3
0
LAYER
2
0
70
0
62
7
6
CONTINUOUS
0
LAYER
2
CUT
70
0
62
1
6
CONTINUOUS
0
LAYER
2
ENGRAVE
70
0
62
3
6
CONTINUOUS
0
ENDTAB
0
ENDSEC
0
SECTION
2
ENTITIES
0
CIRCLE
8
CUT
10
0
20
0
30
0
40
150
0
CIRCLE
8
CUT
10
125
20
0
30
0
40
1.7
0
CIRCLE
8
CUT
10
62.5
20
108.253
30
0
40
1.7
0
CIRCLE
8
CUT
10
-62.5
20
108.253
30
0
40
1.7
0
CIRCLE
8
CUT
10
-125
20
0
30
0
40
1.7
0
CIRCLE
8
CUT
10
-62.5
20
-108.253
30
0
40
1.7
0
CIRCLE
8
CUT
10
62.5
20
-108.253
30
0
40
1.7
0
POLYLINE
8
CUT
66
1
70
1
0
VERTEX
8
CUT
10
40
20
-128
30
0
0
VERTEX
8
CUT
10
39.464
20
-126
30
0
0
VERTEX
8
CUT
10
38
20
-124.536
30
0
0
VERTEX
8
CUT
10
36
20
-124
30
0
0
VERTEX
8
CUT
10
-36
20
-124
30
0
0
VERTEX
8
CUT
10
-38
20
-124.536
30
0
0
VERTEX
8
CUT
10
-39.464
20
-126
30
0
0
VERTEX
8
CUT
10
-40
20
-128
30
0
0
VERTEX
8
CUT
10
-40
20
-134
30
0
0
VERTEX
8
CUT
10
-39.464
20
-136
30
0
0
VERTEX
8
CUT
10
-38
20
-137.464
30
0
0
VERTEX
8
CUT
10
-36
20
-138
30
0
0
VERTEX
8
CUT
10
36
20
-138
30
0
0
VERTEX
8
CUT
10
38
20
-137.464
30
0
0
VERTEX
8
CUT
10
39.464
20
-136
30
0
0
VERTEX
8
CUT
10
40
20
-134
30
0
0
SEQEND
0
POLYLINE
8
ENGRAVE
66
1
70
1
0
VERTEX
8
ENGRAVE
10
98.5
20
90.5
30
0
0
VERTEX
8
ENGRAVE
10
98.227
20
92.571
30
0
0
VERTEX
8
ENGRAVE
10
97.428
20
94.5
30
0
0
VERTEX
8
ENGRAVE
10
96.157
20
96.157
30
0
0
VERTEX
8
ENGRAVE
10
94.5
20
97.428
30
0
0
VERTEX
8
ENGRAVE
10
92.571
20
98.227
30
0
0
VERTEX
8
ENGRAVE
10
90.5
20
98.5
30
0
0
VERTEX
8
ENGRAVE
10
-90.5
20
98.5
30
0
0
VERTEX
8
ENGRAVE
10
-92.571
20
98.227
30
0
0
VERTEX
8
ENGRAVE
10
-94.5
20
97.428
30
0
0
VERTEX
8
ENGRAVE
10
-96.157
20
96.157
30
0
0
VERTEX
8
ENGRAVE
10
-97.428
20
94.5
30
0
0
VERTEX
8
ENGRAVE
10
-98.227
20
92.571
30
0
0
VERTEX
8
ENGRAVE
10
-98.5
20
90.5
30
0
0
VERTEX
8
ENGRAVE
10
-98.5
20
-90.5
30
0
0
VERTEX
8
ENGRAVE
10
-98.227
20
-92.571
30
0
0
VERTEX
8
ENGRAVE
10
-97.428
20
-94.5
30
0
0
VERTEX
8
ENGRAVE
10
-96.157
20
-96.157
30
0
0
VERTEX
8
ENGRAVE
10
-94.5
20
-97.428
30
0
0
VERTEX
8
ENGRAVE
10
-92.571
20
-98.227
30
0
0
VERTEX
8
ENGRAVE
10
-90.5
20
-98.5
30
0
0
VERTEX
8
ENGRAVE
10
90.5
20
-98.5
30
0
0
VERTEX
8
ENGRAVE
10
92.571
20
-98.227
30
0
0
VERTEX
8
ENGRAVE
10
94.5
20
-97.428
30
0
0
VERTEX
8
ENGRAVE
10
96.157
20
-96.157
30
0
0
VERTEX
8
ENGRAVE
10
97.428
20
-94.5
30
0
0
VERTEX
8
ENGRAVE
10
98.227
20
-92.571
30
0
0
VERTEX
8
ENGRAVE
10
98.5
20
-90.5
30
0
0
SEQEND
0
ENDSEC
0
EOF
